
<svg width="550px" height="550px" viewBox="0 0 550 550">
    <path id="o-12" d="M171.3915,234.0435 C171.3915,235.1405 172.2915,236.0245 173.3995,236.0245 L176.9095,236.0245 C178.0185,236.0245 178.9165,235.1395 178.9165,234.0435 L178.9165,228.3875 C178.9165,227.2935 178.0185,226.4055 176.9095,226.4055 L173.3995,226.4055 C172.2915,226.4055 171.3915,227.2935 171.3915,228.3875 L171.3915,234.0435 Z" ></path>
    <path id="o-50" d="M131.9085,215.0105 C131.9085,216.1055 132.8075,216.9915 133.9145,216.9915 L137.4255,216.9915 C138.5345,216.9915 139.4325,216.1055 139.4325,215.0105 L139.4325,209.3525 C139.4325,208.2605 138.5345,207.3705 137.4255,207.3705 L133.9145,207.3705 C132.8075,207.3705 131.9085,208.2615 131.9085,209.3525 L131.9085,215.0105 Z" ></path>
    <path id="o-51" d="M115.4345,198.9035 C115.4345,199.9985 116.3325,200.8845 117.4395,200.8845 L120.9525,200.8845 C122.0605,200.8845 122.9595,199.9975 122.9595,198.9035 L122.9595,193.2455 C122.9595,192.1515 122.0605,191.2645 120.9525,191.2645 L117.4395,191.2645 C116.3325,191.2645 115.4345,192.1515 115.4345,193.2455 L115.4345,198.9035 Z" ></path>
    <path id="o-52" d="M99.3795,183.3205 C99.3795,184.4145 100.2815,185.3015 101.3865,185.3015 L104.8975,185.3015 C106.0065,185.3015 106.9045,184.4135 106.9045,183.3205 L106.9045,177.6625 C106.9045,176.5695 106.0065,175.6805 104.8975,175.6805 L101.3865,175.6805 C100.2815,175.6805 99.3795,176.5695 99.3795,177.6625 L99.3795,183.3205 Z" ></path>
    <path id="o-53" d="M82.1805,166.6135 C82.1805,167.7105 83.0795,168.5955 84.1875,168.5955 L87.6985,168.5955 C88.8055,168.5955 89.7055,167.7105 89.7055,166.6135 L89.7055,160.9575 C89.7055,159.8635 88.8055,158.9755 87.6985,158.9755 L84.1875,158.9755 C83.0795,158.9755 82.1805,159.8645 82.1805,160.9575 L82.1805,166.6135 Z" ></path>
    <path id="o-54" d="M71.4865,143.3535 L67.9745,143.3535 C66.7295,143.3535 65.7145,144.3545 65.7145,145.5845 L65.7145,151.2425 C65.7145,152.4735 66.7295,153.4745 67.9745,153.4745 L71.4865,153.4745 C72.7325,153.4745 73.7465,152.4735 73.7465,151.2425 L73.7465,145.5845 C73.7465,144.3545 72.7325,143.3535 71.4865,143.3535" ></path>
    <path id="o-20" d="M24.7445,358.6495 C24.7445,359.7465 25.6415,360.6305 26.7485,360.6305 L30.2585,360.6305 C31.3685,360.6305 32.2655,359.7465 32.2655,358.6495 L32.2655,352.9925 C32.2655,351.8995 31.3685,351.0105 30.2585,351.0105 L26.7485,351.0105 C25.6415,351.0105 24.7445,351.8995 24.7445,352.9925 L24.7445,358.6495 Z" ></path>
    <path id="o-07" d="M262.0995,305.7735 L249.8515,305.7735 C248.1675,305.7735 246.7965,307.1295 246.7965,308.7945 L246.7965,314.3785 C246.7965,316.0425 248.1675,317.3975 249.8515,317.3975 L262.0995,317.3975 C263.7835,317.3975 265.1555,316.0425 265.1555,314.3785 L265.1555,308.7945 C265.1555,307.1295 263.7835,305.7735 262.0995,305.7735" ></path>
    <path id="o-05" d="M235.5855,370.2145 L223.3405,370.2145 C221.6535,370.2145 220.2835,371.5675 220.2835,373.2315 L220.2835,378.8115 C220.2835,380.4755 221.6535,381.8325 223.3405,381.8325 L235.5855,381.8325 C237.2725,381.8325 238.6425,380.4755 238.6425,378.8115 L238.6425,373.2315 C238.6425,371.5675 237.2725,370.2145 235.5855,370.2145" ></path>
    <path id="o-08" d="M262.0955,267.3525 L249.8535,267.3525 C248.1685,267.3525 246.7995,268.7095 246.7995,270.3745 L246.7995,275.9495 C246.7995,277.6145 248.1685,278.9695 249.8535,278.9695 L262.0955,278.9695 C263.7815,278.9695 265.1535,277.6155 265.1535,275.9495 L265.1535,270.3745 C265.1535,268.7105 263.7815,267.3525 262.0955,267.3525" ></path>
    <path id="o-09" d="M252.2135,248.4355 C252.2135,249.5335 253.1115,250.4195 254.2225,250.4195 L257.7315,250.4195 C258.8415,250.4195 259.7385,249.5325 259.7385,248.4355 L259.7385,242.7805 C259.7385,241.6815 258.8415,240.7965 257.7315,240.7965 L254.2225,240.7965 C253.1115,240.7965 252.2135,241.6815 252.2135,242.7805 L252.2135,248.4355 Z" ></path>
    <path id="o-10" d="M237.9405,234.0415 C237.9405,235.1395 238.8385,236.0255 239.9465,236.0255 L243.4575,236.0255 C244.5665,236.0255 245.4635,235.1385 245.4635,234.0415 L245.4635,228.3885 C245.4635,227.2935 244.5665,226.4065 243.4575,226.4065 L239.9465,226.4065 C238.8385,226.4065 237.9405,227.2935 237.9405,228.3885 L237.9405,234.0415 Z" ></path>
    <path id="o-13" d="M137.1955,248.4445 C137.1955,249.5375 138.0925,250.4255 139.2005,250.4255 L142.7135,250.4255 C143.8205,250.4255 144.7185,249.5375 144.7185,248.4445 L144.7185,242.7855 C144.7185,241.6965 143.8205,240.8035 142.7135,240.8035 L139.2005,240.8035 C138.0925,240.8035 137.1955,241.6975 137.1955,242.7855 L137.1955,248.4445 Z" ></path>
    <path id="o-14" d="M122.0055,264.0625 C122.0055,265.1585 122.9045,266.0485 124.0145,266.0485 L127.5235,266.0485 C128.6305,266.0485 129.5295,265.1575 129.5295,264.0625 L129.5295,258.4065 C129.5295,257.3125 128.6305,256.4255 127.5235,256.4255 L124.0145,256.4255 C122.9045,256.4255 122.0055,257.3125 122.0055,258.4065 L122.0055,264.0625 Z" ></path>
    <path id="o-15" d="M106.2505,279.0665 C106.2505,280.1615 107.1485,281.0455 108.2555,281.0455 L111.7685,281.0455 C112.8755,281.0455 113.7745,280.1615 113.7745,279.0665 L113.7745,273.4095 C113.7745,272.3145 112.8755,271.4275 111.7685,271.4275 L108.2555,271.4275 C107.1485,271.4275 106.2505,272.3155 106.2505,273.4095 L106.2505,279.0665 Z" ></path>
    <path id="o-16" d="M89.6265,295.3605 C89.6265,296.4575 90.5235,297.3445 91.6315,297.3445 L95.1415,297.3445 C96.2505,297.3445 97.1475,296.4575 97.1475,295.3605 L97.1475,289.7045 C97.1475,288.6115 96.2505,287.7235 95.1415,287.7235 L91.6315,287.7235 C90.5235,287.7235 89.6265,288.6125 89.6265,289.7045 L89.6265,295.3605 Z" ></path>
    <path id="o-17" d="M73.2865,311.7605 C73.2865,312.8605 74.1845,313.7425 75.2915,313.7425 L78.8035,313.7425 C79.9115,313.7425 80.8105,312.8605 80.8105,311.7605 L80.8105,306.1055 C80.8105,305.0085 79.9115,304.1225 78.8035,304.1225 L75.2915,304.1225 C74.1845,304.1225 73.2865,305.0085 73.2865,306.1055 L73.2865,311.7605 Z" ></path>
    <path id="o-18" d="M56.4405,328.0685 C56.4405,329.1645 57.3395,330.0495 58.4475,330.0495 L61.9585,330.0495 C63.0655,330.0495 63.9645,329.1645 63.9645,328.0685 L63.9645,322.4105 C63.9645,321.3185 63.0655,320.4275 61.9585,320.4275 L58.4475,320.4275 C57.3395,320.4275 56.4405,321.3195 56.4405,322.4105 L56.4405,328.0685 Z" ></path>
    <path id="o-04" d="M208.6555,404.3525 C208.6555,405.4495 209.5515,406.3335 210.6625,406.3335 L214.1725,406.3335 C215.2805,406.3335 216.1805,405.4495 216.1805,404.3525 L216.1805,398.6965 C216.1805,397.6005 215.2805,396.7125 214.1725,396.7125 L210.6625,396.7125 C209.5515,396.7125 208.6555,397.6005 208.6555,398.6965 L208.6555,404.3525 Z" ></path>
    <path id="o-03" d="M208.6555,426.4425 C208.6555,427.5375 209.5525,428.4245 210.6625,428.4245 L214.1725,428.4245 C215.2785,428.4245 216.1785,427.5365 216.1785,426.4425 L216.1785,420.7835 C216.1785,419.6935 215.2785,418.8055 214.1725,418.8055 L210.6625,418.8055 C209.5525,418.8055 208.6555,419.6935 208.6555,420.7835 L208.6555,426.4425 Z" ></path>
    <path id="o-02" d="M208.6555,448.5335 C208.6555,449.6275 209.5515,450.5145 210.6625,450.5145 L214.1725,450.5145 C215.2805,450.5145 216.1805,449.6275 216.1805,448.5335 L216.1805,442.8755 C216.1805,441.7825 215.2805,440.8975 214.1725,440.8975 L210.6625,440.8975 C209.5515,440.8975 208.6555,441.7825 208.6555,442.8755 L208.6555,448.5335 Z" ></path>
    <path id="o-01" d="M214.1725,462.7385 L210.6605,462.7385 C209.4145,462.7385 208.4025,463.7365 208.4025,464.9705 L208.4025,470.6265 C208.4025,471.8585 209.4145,472.8595 210.6605,472.8595 L214.1725,472.8595 C215.4185,472.8595 216.4325,471.8585 216.4325,470.6265 L216.4325,464.9705 C216.4325,463.7365 215.4185,462.7385 214.1725,462.7385" ></path>
    <path id="o-21" d="M14.0545,367.1365 L10.5415,367.1365 C9.2975,367.1365 8.2835,368.1325 8.2835,369.3675 L8.2835,375.0245 C8.2835,376.2535 9.2975,377.2545 10.5415,377.2545 L14.0545,377.2545 C15.3005,377.2545 16.3145,376.2535 16.3145,375.0245 L16.3145,369.3675 C16.3145,368.1325 15.3005,367.1365 14.0545,367.1365" ></path>
    <path id="o-06" d="M256.8275,348.0645 L244.5825,348.0645 C242.8985,348.0645 241.5275,349.4215 241.5275,351.0835 L241.5275,356.6665 C241.5275,358.3305 242.8985,359.6875 244.5825,359.6875 L256.8275,359.6875 C258.5115,359.6875 259.8825,358.3315 259.8825,356.6665 L259.8825,351.0835 C259.8825,349.4215 258.5115,348.0645 256.8275,348.0645" ></path>
    <path id="o-11" d="M214.1345,225.4085 L201.8895,225.4085 C200.2025,225.4085 198.8325,226.7625 198.8325,228.4295 L198.8325,234.0065 C198.8325,235.6685 200.2025,237.0245 201.8895,237.0245 L214.1345,237.0245 C215.8225,237.0245 217.1905,235.6695 217.1905,234.0065 L217.1905,228.4295 C217.1905,226.7625 215.8225,225.4085 214.1345,225.4085" ></path>
    <path id="bl-15" d="M308.0955,305.7735 L295.8495,305.7735 C294.1615,305.7735 292.7935,307.1295 292.7935,308.7945 L292.7935,314.3785 C292.7935,316.0425 294.1615,317.3975 295.8495,317.3975 L308.0955,317.3975 C309.7805,317.3975 311.1505,316.0425 311.1505,314.3785 L311.1505,308.7945 C311.1505,307.1295 309.7805,305.7735 308.0955,305.7735" ></path>
    <path id="bl-16" d="M327.5295,314.4165 C327.5295,315.5085 328.4285,316.3945 329.5355,316.3945 L333.0465,316.3945 C334.1535,316.3945 335.0535,315.5085 335.0535,314.4165 L335.0535,308.7575 C335.0535,307.6615 334.1535,306.7745 333.0465,306.7745 L329.5355,306.7745 C328.4285,306.7745 327.5295,307.6625 327.5295,308.7575 L327.5295,314.4165 Z" ></path>
    <path id="bl-17" d="M351.6885,314.4165 C351.6885,315.5085 352.5875,316.3945 353.6955,316.3945 L357.2075,316.3945 C358.3145,316.3945 359.2135,315.5085 359.2135,314.4165 L359.2135,308.7575 C359.2135,307.6615 358.3145,306.7745 357.2075,306.7745 L353.6955,306.7745 C352.5875,306.7745 351.6885,307.6625 351.6885,308.7575 L351.6885,314.4165 Z" ></path>
    <path id="bl-18" d="M374.4635,314.4165 C374.4635,315.5085 375.3615,316.3945 376.4695,316.3945 L379.9845,316.3945 C381.0875,316.3945 381.9865,315.5085 381.9865,314.4165 L381.9865,308.7575 C381.9865,307.6615 381.0875,306.7745 379.9845,306.7745 L376.4695,306.7745 C375.3615,306.7745 374.4635,307.6625 374.4635,308.7575 L374.4635,314.4165 Z" ></path>
    <path id="bl-19" d="M399.1665,314.4165 C399.1665,315.5085 400.0645,316.3945 401.1755,316.3945 L404.6845,316.3945 C405.7895,316.3945 406.6915,315.5085 406.6915,314.4165 L406.6915,308.7575 C406.6915,307.6615 405.7895,306.7745 404.6845,306.7745 L401.1755,306.7745 C400.0645,306.7745 399.1665,307.6625 399.1665,308.7575 L399.1665,314.4165 Z" ></path>
    <path id="bl-20" d="M420.8485,304.2695 C420.8485,305.3655 421.7455,306.2515 422.8535,306.2515 L426.3655,306.2515 C427.4735,306.2515 428.3715,305.3655 428.3715,304.2695 L428.3715,298.6095 C428.3715,297.5205 427.4735,296.6315 426.3655,296.6315 L422.8535,296.6315 C421.7455,296.6315 420.8485,297.5205 420.8485,298.6095 L420.8485,304.2695 Z" ></path>
    <path id="bl-21" d="M436.7975,289.0135 C436.7975,290.1075 437.6965,290.9985 438.8055,290.9985 L442.3195,290.9985 C443.4275,290.9985 444.3245,290.1065 444.3245,289.0135 L444.3245,283.3545 C444.3245,282.2635 443.4275,281.3725 442.3195,281.3725 L438.8055,281.3725 C437.6965,281.3725 436.7975,282.2635 436.7975,283.3545 L436.7975,289.0135 Z" ></path>
    <path id="bl-22" d="M460.0445,288.5655 C460.0445,289.6625 460.9405,290.5475 462.0475,290.5475 L465.5615,290.5475 C466.6705,290.5475 467.5665,289.6625 467.5665,288.5655 L467.5665,282.9105 C467.5665,281.8165 466.6705,280.9275 465.5615,280.9275 L462.0475,280.9275 C460.9405,280.9275 460.0445,281.8175 460.0445,282.9105 L460.0445,288.5655 Z" ></path>
    <path id="bl-13" d="M228.6945,314.4185 C228.6945,315.5105 229.5935,316.3965 230.7005,316.3965 L234.2135,316.3965 C235.3185,316.3965 236.2175,315.5105 236.2175,314.4185 L236.2175,308.7605 C236.2175,307.6625 235.3185,306.7755 234.2135,306.7755 L230.7005,306.7755 C229.5935,306.7755 228.6945,307.6625 228.6945,308.7605 L228.6945,314.4185 Z" ></path>
    <path id="bl-10" d="M144.5915,325.8055 C144.5915,326.9015 145.4905,327.7855 146.5975,327.7855 L150.1105,327.7855 C151.2165,327.7855 152.1145,326.9015 152.1145,325.8055 L152.1145,320.1495 C152.1145,319.0555 151.2165,318.1655 150.1105,318.1655 L146.5975,318.1655 C145.4905,318.1655 144.5915,319.0555 144.5915,320.1495 L144.5915,325.8055 Z" ></path>
    <path id="bl-09" d="M128.6885,342.0325 C128.6885,343.1315 129.5875,344.0165 130.6975,344.0165 L134.2095,344.0165 C135.3175,344.0165 136.2145,343.1315 136.2145,342.0325 L136.2145,336.3745 C136.2145,335.2835 135.3175,334.3965 134.2095,334.3965 L130.6975,334.3965 C129.5875,334.3965 128.6885,335.2835 128.6885,336.3745 L128.6885,342.0325 Z" ></path>
    <path id="bl-08" d="M112.7535,358.1445 C112.7535,359.2395 113.6545,360.1255 114.7625,360.1255 L118.2745,360.1255 C119.3825,360.1255 120.2795,359.2395 120.2795,358.1445 L120.2795,352.4865 C120.2795,351.3895 119.3825,350.5045 118.2745,350.5045 L114.7625,350.5045 C113.6545,350.5045 112.7535,351.3895 112.7535,352.4865 L112.7535,358.1445 Z" ></path>
    <path id="bl-07" d="M95.8445,375.8235 C95.8445,376.9175 96.7435,377.8015 97.8525,377.8015 L101.3635,377.8015 C102.4715,377.8015 103.3685,376.9175 103.3685,375.8235 L103.3685,370.1645 C103.3685,369.0695 102.4715,368.1795 101.3635,368.1795 L97.8525,368.1795 C96.7435,368.1795 95.8445,369.0705 95.8445,370.1645 L95.8445,375.8235 Z" ></path>
    <path id="bl-06" d="M89.1865,397.5635 C89.1865,398.6625 90.0835,399.5465 91.1925,399.5465 L94.7055,399.5465 C95.8125,399.5465 96.7125,398.6625 96.7125,397.5635 L96.7125,391.9035 C96.7125,390.8115 95.8125,389.9245 94.7055,389.9245 L91.1925,389.9245 C90.0835,389.9245 89.1865,390.8125 89.1865,391.9035 L89.1865,397.5635 Z" ></path>
    <path id="bl-05" d="M89.7925,420.4865 C89.7925,421.5825 90.6895,422.4705 91.7985,422.4705 L95.3115,422.4705 C96.4185,422.4705 97.3165,421.5815 97.3165,420.4865 L97.3165,414.8295 C97.3165,413.7355 96.4185,412.8495 95.3115,412.8495 L91.7985,412.8495 C90.6895,412.8495 89.7925,413.7355 89.7925,414.8295 L89.7925,420.4865 Z" ></path>
    <path id="bl-04" d="M89.8905,443.1195 C89.8905,444.2135 90.7875,445.0985 91.8965,445.0985 L95.4095,445.0985 C96.5165,445.0985 97.4145,444.2125 97.4145,443.1195 L97.4145,437.4615 C97.4145,436.3645 96.5165,435.4775 95.4095,435.4775 L91.8965,435.4775 C90.7875,435.4775 89.8905,436.3645 89.8905,437.4615 L89.8905,443.1195 Z" ></path>
    <path id="bl-03" d="M89.8905,465.7465 C89.8905,466.8405 90.7875,467.7295 91.8965,467.7295 L95.4095,467.7295 C96.5165,467.7295 97.4145,466.8405 97.4145,465.7465 L97.4145,460.0895 C97.4145,458.9955 96.5165,458.1075 95.4095,458.1075 L91.8965,458.1075 C90.7875,458.1075 89.8905,458.9965 89.8905,460.0895 L89.8905,465.7465 Z" ></path>
    <path id="bl-02" d="M78.6015,486.5425 C78.6015,487.6415 79.4985,488.5235 80.6075,488.5235 L84.1185,488.5235 C85.2275,488.5235 86.1255,487.6415 86.1255,486.5425 L86.1255,480.8855 C86.1255,479.7925 85.2275,478.9035 84.1185,478.9035 L80.6075,478.9035 C79.4985,478.9035 78.6015,479.7935 78.6015,480.8855 L78.6015,486.5425 Z" ></path>
    <path id="bl-11" d="M180.5955,305.7765 L168.3495,305.7765 C166.6655,305.7765 165.2925,307.1295 165.2925,308.7945 L165.2925,314.3725 C165.2925,316.0365 166.6655,317.3935 168.3495,317.3935 L180.5955,317.3935 C182.2805,317.3935 183.6515,316.0355 183.6515,314.3725 L183.6515,308.7945 C183.6515,307.1295 182.2805,305.7765 180.5955,305.7765" ></path>
    <path id="bl-23" d="M497.9255,280.003 L486.2765,280.003 C484.5955,280.003 483.2215,281.355 483.2215,283.022 L483.2215,288.602 C483.2215,290.267 484.5955,291.624 486.2765,291.624 L497.9255,291.624 C499.6095,291.624 500.9805,290.267 500.9805,288.602 L500.9805,283.022 C500.9805,281.355 499.6085,280.003 497.9255,280.003" ></path>
    <path id="bl-01" d="M69.2595,503.6075 L65.9215,503.6075 C64.7375,503.6075 63.7715,502.6565 63.7715,501.4865 L63.7715,496.1115 C63.7715,494.9395 64.7375,493.9865 65.9215,493.9865 L69.2595,493.9865 C70.4425,493.9865 71.4065,494.9395 71.4065,496.1115 L71.4065,501.4865 C71.4065,502.6565 70.4425,503.6075 69.2595,503.6075" ></path>
    <path id="bl-14" d="M262.0995,305.7735 L249.8515,305.7735 C248.1675,305.7735 246.7965,307.1295 246.7965,308.7945 L246.7965,314.3785 C246.7965,316.0425 248.1675,317.3975 249.8515,317.3975 L262.0995,317.3975 C263.7835,317.3975 265.1555,316.0425 265.1555,314.3785 L265.1555,308.7945 C265.1555,307.1295 263.7835,305.7735 262.0995,305.7735" ></path>
    <path id="bl-12" d="M214.1355,305.7765 L201.8905,305.7765 C200.2025,305.7765 198.8315,307.1275 198.8315,308.7945 L198.8315,314.3725 C198.8315,316.0375 200.2025,317.3935 201.8905,317.3935 L214.1355,317.3935 C215.8225,317.3935 217.1915,316.0365 217.1915,314.3725 L217.1915,308.7945 C217.1905,307.1275 215.8225,305.7765 214.1355,305.7765" ></path>
    <path id="r-19" d="M204.3285,97.4795 C204.3285,98.5755 205.2265,99.4615 206.3345,99.4615 L209.8465,99.4615 C210.9535,99.4615 211.8535,98.5755 211.8535,97.4795 L211.8535,91.8225 C211.8535,90.7285 210.9535,89.8415 209.8465,89.8415 L206.3345,89.8415 C205.2265,89.8415 204.3285,90.7295 204.3285,91.8225 L204.3285,97.4795 Z" ></path>
    <path id="r-20" d="M182.8895,90.0345 C182.8895,91.1285 183.7895,92.0155 184.8975,92.0155 L188.4085,92.0155 C189.5165,92.0155 190.4145,91.1285 190.4145,90.0345 L190.4145,84.3765 C190.4145,83.2845 189.5165,82.3945 188.4085,82.3945 L184.8975,82.3945 C183.7895,82.3945 182.8895,83.2855 182.8895,84.3765 L182.8895,90.0345 Z" ></path>
    <path id="r-21" d="M159.4475,90.0345 C159.4475,91.1285 160.3465,92.0155 161.4545,92.0155 L164.9655,92.0155 C166.0725,92.0155 166.9705,91.1285 166.9705,90.0345 L166.9705,84.3765 C166.9705,83.2835 166.0725,82.3945 164.9655,82.3945 L161.4545,82.3945 C160.3465,82.3945 159.4475,83.2845 159.4475,84.3765 L159.4475,90.0345 Z" ></path>
    <path id="r-23" d="M112.5615,90.0345 C112.5615,91.1285 113.4605,92.0155 114.5685,92.0155 L118.0815,92.0155 C119.1875,92.0155 120.0865,91.1285 120.0865,90.0345 L120.0865,84.3775 C120.0865,83.2835 119.1875,82.3945 118.0815,82.3945 L114.5685,82.3945 C113.4605,82.3945 112.5615,83.2845 112.5615,84.3775 L112.5615,90.0345 Z" ></path>
    <path id="r-24" d="M89.1165,90.0345 C89.1165,91.1285 90.0165,92.0155 91.1235,92.0155 L94.6355,92.0155 C95.7425,92.0155 96.6435,91.1285 96.6435,90.0345 L96.6435,84.3775 C96.6435,83.2835 95.7425,82.3945 94.6355,82.3945 L91.1235,82.3945 C90.0165,82.3945 89.1165,83.2845 89.1165,84.3775 L89.1165,90.0345 Z" ></path>
    <path id="r-25" d="M65.3355,90.0355 C65.3355,91.1295 66.2365,92.0165 67.3435,92.0165 L70.8555,92.0165 C71.9625,92.0165 72.8625,91.1285 72.8625,90.0355 L72.8625,84.3785 C72.8625,83.2835 71.9625,82.3975 70.8555,82.3975 L67.3435,82.3975 C66.2365,82.3975 65.3355,83.2835 65.3355,84.3785 L65.3355,90.0355 Z" ></path>
    <path id="r-26" d="M58.6805,66.4215 C58.6805,67.5165 59.5815,68.4025 60.6875,68.4025 L64.2005,68.4025 C65.3075,68.4025 66.2075,67.5165 66.2075,66.4215 L66.2075,60.7655 C66.2075,59.6705 65.3075,58.7835 64.2005,58.7835 L60.6875,58.7835 C59.5815,58.7835 58.6805,59.6715 58.6805,60.7655 L58.6805,66.4215 Z" ></path>
    <path id="r-27" d="M58.6805,43.8825 C58.6805,44.9775 59.5815,45.8645 60.6875,45.8645 L64.2005,45.8645 C65.3075,45.8645 66.2075,44.9775 66.2075,43.8825 L66.2075,38.2265 C66.2075,37.1315 65.3075,36.2435 64.2005,36.2435 L60.6875,36.2435 C59.5815,36.2435 58.6805,37.1325 58.6805,38.2265 L58.6805,43.8825 Z" ></path>
    <path id="r-28" d="M64.2005,13.4535 L60.6885,13.4535 C59.4415,13.4535 58.4285,14.4535 58.4285,15.6845 L58.4285,21.3435 C58.4285,22.5725 59.4415,23.5755 60.6885,23.5755 L64.2005,23.5755 C65.4465,23.5755 66.4605,22.5725 66.4605,21.3435 L66.4605,15.6845 C66.4605,14.4535 65.4465,13.4535 64.2005,13.4535" ></path>
    <path id="r-22" d="M136.0045,90.0345 C136.0045,91.1285 136.9025,92.0155 138.0105,92.0155 L141.5245,92.0155 C142.6305,92.0155 143.5295,91.1285 143.5295,90.0345 L143.5295,84.3775 C143.5295,83.2835 142.6305,82.3945 141.5245,82.3945 L138.0105,82.3945 C136.9025,82.3945 136.0045,83.2845 136.0045,84.3775 L136.0045,90.0345 Z" ></path>
    <path id="r-22a" d="M141.3185,62.2925 L137.8065,62.2925 C136.5605,62.2925 135.5475,63.2935 135.5475,64.5235 L135.5475,70.1825 C135.5475,71.4135 136.5605,72.4135 137.8065,72.4135 L141.3185,72.4135 C142.5655,72.4135 143.5785,71.4135 143.5785,70.1825 L143.5785,64.5235 C143.5785,63.2935 142.5655,62.2925 141.3185,62.2925" ></path>
    <path id="r-14" d="M204.3285,204.9415 C204.3285,206.0365 205.2265,206.9225 206.3345,206.9225 L209.8465,206.9225 C210.9545,206.9225 211.8535,206.0355 211.8535,204.9415 L211.8535,199.2835 C211.8535,198.1915 210.9545,197.3025 209.8465,197.3025 L206.3345,197.3025 C205.2265,197.3025 204.3285,198.1915 204.3285,199.2835 L204.3285,204.9415 Z" ></path>
    <path id="r-15" d="M204.3285,183.4495 C204.3285,184.5445 205.2265,185.4315 206.3345,185.4315 L209.8465,185.4315 C210.9545,185.4315 211.8535,184.5445 211.8535,183.4495 L211.8535,177.7925 C211.8535,176.6965 210.9545,175.8095 209.8465,175.8095 L206.3345,175.8095 C205.2265,175.8095 204.3285,176.6975 204.3285,177.7925 L204.3285,183.4495 Z" ></path>
    <path id="r-16" d="M204.3285,161.9555 C204.3285,163.0525 205.2265,163.9385 206.3345,163.9385 L209.8465,163.9385 C210.9545,163.9385 211.8535,163.0515 211.8535,161.9555 L211.8535,156.2975 C211.8535,155.2055 210.9545,154.3165 209.8465,154.3165 L206.3345,154.3165 C205.2265,154.3165 204.3285,155.2055 204.3285,156.2975 L204.3285,161.9555 Z" ></path>
    <path id="r-17" d="M204.3285,140.4625 C204.3285,141.5585 205.2265,142.4455 206.3345,142.4455 L209.8465,142.4455 C210.9545,142.4455 211.8535,141.5585 211.8535,140.4625 L211.8535,134.8045 C211.8535,133.7115 210.9545,132.8235 209.8465,132.8235 L206.3345,132.8235 C205.2265,132.8235 204.3285,133.7125 204.3285,134.8045 L204.3285,140.4625 Z" ></path>
    <path id="r-18" d="M204.3285,118.9715 C204.3285,120.0655 205.2265,120.9525 206.3345,120.9525 L209.8465,120.9525 C210.9545,120.9525 211.8535,120.0655 211.8535,118.9715 L211.8535,113.3135 C211.8535,112.2195 210.9545,111.3325 209.8465,111.3325 L206.3345,111.3325 C205.2265,111.3325 204.3285,112.2205 204.3285,113.3135 L204.3285,118.9715 Z" ></path>
    <path id="r-10" d="M214.1355,305.7765 L201.8905,305.7765 C200.2025,305.7765 198.8315,307.1275 198.8315,308.7945 L198.8315,314.3725 C198.8315,316.0375 200.2025,317.3935 201.8905,317.3935 L214.1355,317.3935 C215.8225,317.3935 217.1915,316.0365 217.1915,314.3725 L217.1915,308.7945 C217.1905,307.1275 215.8225,305.7765 214.1355,305.7765" ></path>
    <path id="r-09" d="M204.2505,335.5655 C204.2505,336.6635 205.1495,337.5505 206.2575,337.5505 L209.7695,337.5505 C210.8755,337.5505 211.7755,336.6635 211.7755,335.5655 L211.7755,329.9085 C211.7755,328.8165 210.8755,327.9295 209.7695,327.9295 L206.2575,327.9295 C205.1495,327.9295 204.2505,328.8165 204.2505,329.9085 L204.2505,335.5655 Z" ></path>
    <path id="r-06" d="M272.7175,356.6995 C272.7175,357.8005 273.6205,358.6845 274.7325,358.6845 L278.2395,358.6845 C279.3505,358.6845 280.2515,357.8005 280.2515,356.6995 L280.2515,351.0445 C280.2515,349.9495 279.3505,349.0625 278.2395,349.0625 L274.7325,349.0625 C273.6205,349.0625 272.7175,349.9505 272.7175,351.0445 L272.7175,356.6995 Z" ></path>
    <path id="r-04" d="M328.2955,356.6995 C328.2955,357.8005 329.1925,358.6845 330.3005,358.6845 L333.8105,358.6845 C334.9185,358.6845 335.8195,357.8005 335.8195,356.6995 L335.8195,351.0445 C335.8195,349.9495 334.9185,349.0625 333.8105,349.0625 L330.3005,349.0625 C329.1925,349.0625 328.2955,349.9505 328.2955,351.0445 L328.2955,356.6995 Z" ></path>
    <path id="r-03" d="M351.7525,356.6995 C351.7525,357.8005 352.6525,358.6845 353.7605,358.6845 L357.2725,358.6845 C358.3815,358.6845 359.2805,357.8005 359.2805,356.6995 L359.2805,351.0445 C359.2805,349.9495 358.3815,349.0625 357.2725,349.0625 L353.7605,349.0625 C352.6525,349.0625 351.7525,349.9505 351.7525,351.0445 L351.7525,356.6995 Z" ></path>
    <path id="r-11" d="M214.1335,267.3525 L201.8905,267.3525 C200.2055,267.3525 198.8345,268.7095 198.8345,270.3745 L198.8345,275.9495 C198.8345,277.6145 200.2055,278.9695 201.8905,278.9695 L214.1335,278.9695 C215.8205,278.9695 217.1895,277.6155 217.1895,275.9495 L217.1895,270.3745 C217.1895,268.7105 215.8205,267.3525 214.1335,267.3525" ></path>
    <path id="r-12" d="M204.3295,252.5955 C204.3295,253.6935 205.2275,254.5785 206.3345,254.5785 L209.8475,254.5785 C210.9545,254.5785 211.8535,253.6935 211.8535,252.5955 L211.8535,246.9365 C211.8535,245.8475 210.9545,244.9575 209.8475,244.9575 L206.3345,244.9575 C205.2275,244.9575 204.3295,245.8485 204.3295,246.9365 L204.3295,252.5955 Z" ></path>
    <path id="r-07" d="M256.8275,348.0645 L244.5825,348.0645 C242.8985,348.0645 241.5275,349.4215 241.5275,351.0835 L241.5275,356.6665 C241.5275,358.3305 242.8985,359.6875 244.5825,359.6875 L256.8275,359.6875 C258.5115,359.6875 259.8825,358.3315 259.8825,356.6665 L259.8825,351.0835 C259.8825,349.4215 258.5115,348.0645 256.8275,348.0645" ></path>
    <path id="r-14" d="M214.1345,225.4085 L201.8895,225.4085 C200.2025,225.4085 198.8325,226.7625 198.8325,228.4295 L198.8325,234.0065 C198.8325,235.6685 200.2025,237.0245 201.8895,237.0245 L214.1345,237.0245 C215.8225,237.0245 217.1905,235.6695 217.1905,234.0065 L217.1905,228.4295 C217.1905,226.7625 215.8225,225.4085 214.1345,225.4085" ></path>
    <path id="r-05" d="M308.0945,348.0645 L295.8495,348.0645 C294.1655,348.0645 292.7935,349.4195 292.7935,351.0855 L292.7935,356.6655 C292.7935,358.3285 294.1655,359.6855 295.8495,359.6855 L308.0945,359.6855 C309.7825,359.6855 311.1515,358.3295 311.1515,356.6655 L311.1515,351.0855 C311.1505,349.4195 309.7825,348.0645 308.0945,348.0645" ></path>
    <path id="r-08" d="M214.1335,347.9285 L201.8895,347.9285 C200.2045,347.9285 198.8335,349.2845 198.8335,350.9475 L198.8335,356.5265 C198.8335,358.1925 200.2045,359.5465 201.8895,359.5465 L214.1335,359.5465 C215.8215,359.5465 217.1895,358.1925 217.1895,356.5265 L217.1895,350.9475 C217.1905,349.2845 215.8215,347.9285 214.1335,347.9285" ></path>
    <path id="r-01" d="M381.1285,348.6765 L377.6165,348.6765 C376.3705,348.6765 375.3595,349.6775 375.3595,350.9085 L375.3595,356.5655 C375.3595,357.7995 376.3705,358.7965 377.6165,358.7965 L381.1285,358.7965 C382.3755,358.7965 383.3885,357.7995 383.3885,356.5655 L383.3885,350.9085 C383.3885,349.6775 382.3755,348.6765 381.1285,348.6765" ></path>
    <path id="g-13" d="M170.7315,291.7655 C170.7315,292.8665 171.6295,293.7495 172.7375,293.7495 L176.2495,293.7495 C177.3575,293.7495 178.2555,292.8655 178.2555,291.7655 L178.2555,286.1075 C178.2555,285.0145 177.3575,284.1275 176.2495,284.1275 L172.7375,284.1275 C171.6295,284.1275 170.7315,285.0145 170.7315,286.1075 L170.7315,291.7655 Z" ></path>
    <path id="g-11" d="M170.8765,347.9005 C170.8765,348.9985 171.7765,349.8835 172.8835,349.8835 L176.3955,349.8835 C177.5045,349.8835 178.4045,348.9985 178.4045,347.9005 L178.4045,342.2425 C178.4045,341.1475 177.5045,340.2625 176.3955,340.2625 L172.8835,340.2625 C171.7765,340.2625 170.8765,341.1475 170.8765,342.2425 L170.8765,347.9005 Z" ></path>
    <path id="g-08" d="M242.5525,395.6025 C242.5525,396.6975 243.4545,397.5855 244.5605,397.5855 L248.0725,397.5855 C249.1805,397.5855 250.0805,396.6975 250.0805,395.6025 L250.0805,389.9465 C250.0805,388.8535 249.1805,387.9655 248.0725,387.9655 L244.5605,387.9655 C243.4545,387.9655 242.5525,388.8535 242.5525,389.9465 L242.5525,395.6025 Z" ></path>
    <path id="g-07" d="M256.8615,410.1335 C256.8615,411.2305 257.7585,412.1175 258.8695,412.1175 L262.3765,412.1175 C263.4845,412.1175 264.3845,411.2305 264.3845,410.1335 L264.3845,404.4775 C264.3845,403.3845 263.4845,402.4965 262.3765,402.4965 L258.8695,402.4965 C257.7585,402.4965 256.8615,403.3845 256.8615,404.4775 L256.8615,410.1335 Z" ></path>
    <path id="g-06" d="M271.0015,424.8905 C271.0015,425.9805 271.8995,426.8685 273.0075,426.8685 L276.5215,426.8685 C277.6275,426.8685 278.5255,425.9805 278.5255,424.8905 L278.5255,419.2325 C278.5255,418.1345 277.6275,417.2475 276.5215,417.2475 L273.0075,417.2475 C271.8995,417.2475 271.0015,418.1355 271.0015,419.2325 L271.0015,424.8905 Z" ></path>
    <path id="g-05" d="M279.9285,444.9035 C279.9285,445.9975 280.8265,446.8855 281.9345,446.8855 L285.4465,446.8855 C286.5515,446.8855 287.4505,445.9975 287.4505,444.9035 L287.4505,439.2475 C287.4505,438.1525 286.5515,437.2645 285.4465,437.2645 L281.9345,437.2645 C280.8265,437.2645 279.9285,438.1535 279.9285,439.2475 L279.9285,444.9035 Z" ></path>
    <path id="g-04" d="M279.9285,466.2545 C279.9285,467.3505 280.8265,468.2395 281.9345,468.2395 L285.4465,468.2395 C286.5515,468.2395 287.4505,467.3505 287.4505,466.2545 L287.4505,460.5995 C287.4505,459.5035 286.5515,458.6175 285.4465,458.6175 L281.9345,458.6175 C280.8265,458.6175 279.9285,459.5035 279.9285,460.5995 L279.9285,466.2545 Z" ></path>
    <path id="g-03" d="M279.9285,487.6105 C279.9285,488.7025 280.8265,489.5895 281.9355,489.5895 L285.4465,489.5895 C286.5495,489.5895 287.4505,488.7025 287.4505,487.6105 L287.4505,481.9505 C287.4505,480.8615 286.5495,479.9705 285.4465,479.9705 L281.9355,479.9705 C280.8265,479.9705 279.9285,480.8615 279.9285,481.9505 L279.9285,487.6105 Z" ></path>
    <path id="g-02" d="M279.9285,508.9595 C279.9285,510.0575 280.8245,510.9425 281.9365,510.9425 L285.4415,510.9425 C286.5525,510.9425 287.4515,510.0565 287.4515,508.9595 L287.4515,503.3045 C287.4515,502.2085 286.5525,501.3205 285.4415,501.3205 L281.9365,501.3205 C280.8255,501.3205 279.9285,502.2085 279.9285,503.3045 L279.9285,508.9595 Z" ></path>
    <path id="g-16" d="M308.0955,267.3525 L295.8485,267.3525 C294.1595,267.3525 292.7945,268.7095 292.7945,270.3745 L292.7945,275.9495 C292.7945,277.6145 294.1595,278.9695 295.8485,278.9695 L308.0955,278.9695 C309.7815,278.9695 311.1495,277.6155 311.1495,275.9495 L311.1495,270.3745 C311.1495,268.7105 309.7815,267.3525 308.0955,267.3525" ></path>
    <path id="g-17" d="M330.0365,275.9895 C330.0365,277.0835 330.9345,277.9715 332.0425,277.9715 L335.5555,277.9715 C336.6635,277.9715 337.5615,277.0825 337.5615,275.9895 L337.5615,270.3345 C337.5615,269.2395 336.6635,268.3495 335.5555,268.3495 L332.0425,268.3495 C330.9345,268.3495 330.0365,269.2395 330.0365,270.3345 L330.0365,275.9895 Z" ></path>
    <path id="g-18" d="M362.0465,275.9895 C362.0465,277.0835 362.9505,277.9715 364.0575,277.9715 L367.5675,277.9715 C368.6785,277.9715 369.5775,277.0825 369.5775,275.9895 L369.5775,270.3345 C369.5775,269.2395 368.6785,268.3495 367.5675,268.3495 L364.0575,268.3495 C362.9505,268.3495 362.0465,269.2395 362.0465,270.3345 L362.0465,275.9895 Z" ></path>
    <path id="g-01" d="M285.4465,522.4255 L281.9305,522.4255 C280.6865,522.4255 279.6745,523.4265 279.6745,524.6585 L279.6745,530.3145 C279.6745,531.5485 280.6865,532.5485 281.9305,532.5485 L285.4465,532.5485 C286.6915,532.5485 287.7045,531.5485 287.7045,530.3145 L287.7045,524.6585 C287.7045,523.4265 286.6915,522.4255 285.4465,522.4255" ></path>
    <path id="g-19" d="M403.5845,268.1005 L400.0715,268.1005 C398.8255,268.1005 397.8125,269.0985 397.8125,270.3315 L397.8125,275.9885 C397.8125,277.2155 398.8255,278.2195 400.0715,278.2195 L403.5845,278.2195 C404.8295,278.2195 405.8435,277.2155 405.8435,275.9885 L405.8435,270.3315 C405.8435,269.0985 404.8295,268.1005 403.5845,268.1005" ></path>
    <path id="g-03a" d="M267.1915,479.5415 L263.6795,479.5415 C262.4335,479.5415 261.4185,480.5405 261.4185,481.7745 L261.4185,487.4315 C261.4185,488.6615 262.4335,489.6645 263.6795,489.6645 L267.1915,489.6645 C268.4355,489.6645 269.4545,488.6615 269.4545,487.4315 L269.4545,481.7745 C269.4545,480.5405 268.4355,479.5415 267.1915,479.5415" ></path>
    <path id="g-09" d="M235.5855,370.2145 L223.3405,370.2145 C221.6535,370.2145 220.2835,371.5675 220.2835,373.2315 L220.2835,378.8115 C220.2835,380.4755 221.6535,381.8325 223.3405,381.8325 L235.5855,381.8325 C237.2725,381.8325 238.6425,380.4755 238.6425,378.8115 L238.6425,373.2315 C238.6425,371.5675 237.2725,370.2145 235.5855,370.2145" ></path>
    <path id="g-15" d="M262.0955,267.3525 L249.8535,267.3525 C248.1685,267.3525 246.7995,268.7095 246.7995,270.3745 L246.7995,275.9495 C246.7995,277.6145 248.1685,278.9695 249.8535,278.9695 L262.0955,278.9695 C263.7815,278.9695 265.1535,277.6155 265.1535,275.9495 L265.1535,270.3745 C265.1535,268.7105 263.7815,267.3525 262.0955,267.3525" ></path>
    <path id="g-12" d="M180.5955,305.7765 L168.3495,305.7765 C166.6655,305.7765 165.2925,307.1295 165.2925,308.7945 L165.2925,314.3725 C165.2925,316.0365 166.6655,317.3935 168.3495,317.3935 L180.5955,317.3935 C182.2805,317.3935 183.6515,316.0355 183.6515,314.3725 L183.6515,308.7945 C183.6515,307.1295 182.2805,305.7765 180.5955,305.7765"></path>
    <path id="g-14" d="M214.1335,267.3525 L201.8905,267.3525 C200.2055,267.3525 198.8345,268.7095 198.8345,270.3745 L198.8345,275.9495 C198.8345,277.6145 200.2055,278.9695 201.8905,278.9695 L214.1335,278.9695 C215.8205,278.9695 217.1895,277.6155 217.1895,275.9495 L217.1895,270.3745 C217.1895,268.7105 215.8205,267.3525 214.1335,267.3525" ></path>
    <path id="g-10" d="M214.1335,347.9285 L201.8895,347.9285 C200.2045,347.9285 198.8335,349.2845 198.8335,350.9475 L198.8335,356.5265 C198.8335,358.1925 200.2045,359.5465 201.8895,359.5465 L214.1335,359.5465 C215.8215,359.5465 217.1895,358.1925 217.1895,356.5265 L217.1895,350.9475 C217.1905,349.2845 215.8215,347.9285 214.1335,347.9285" ></path>
    <path id="br-02" d="M389.1335,450.6625 C389.1335,451.7605 390.0295,452.6465 391.1365,452.6465 L394.6455,452.6465 C395.7555,452.6465 396.6535,451.7605 396.6535,450.6625 L396.6535,445.0055 C396.6535,443.9135 395.7555,443.0265 394.6455,443.0265 L391.1365,443.0265 C390.0295,443.0265 389.1335,443.9145 389.1335,445.0055 L389.1335,450.6625 Z" ></path>
    <path id="br-03" d="M366.1475,450.6625 C366.1475,451.7605 367.0465,452.6465 368.1545,452.6465 L371.6655,452.6465 C372.7715,452.6465 373.6705,451.7605 373.6705,450.6625 L373.6705,445.0055 C373.6705,443.9135 372.7715,443.0265 371.6655,443.0265 L368.1545,443.0265 C367.0465,443.0265 366.1475,443.9145 366.1475,445.0055 L366.1475,450.6625 Z" ></path>
    <path id="br-04" d="M349.3775,437.7315 C349.3775,438.8275 350.2805,439.7145 351.3855,439.7145 L354.8955,439.7145 C356.0055,439.7145 356.9045,438.8265 356.9045,437.7315 L356.9045,432.0765 C356.9045,430.9825 356.0055,430.0945 354.8955,430.0945 L351.3855,430.0945 C350.2805,430.0945 349.3775,430.9825 349.3775,432.0765 L349.3775,437.7315 Z" ></path>
    <path id="br-05" d="M349.3775,416.1325 C349.3775,417.2315 350.2805,418.1155 351.3855,418.1155 L354.8935,418.1155 C356.0015,418.1155 356.9045,417.2315 356.9045,416.1325 L356.9045,410.4765 C356.9045,409.3855 356.0015,408.4965 354.8935,408.4965 L351.3855,408.4965 C350.2805,408.4965 349.3775,409.3855 349.3775,410.4765 L349.3775,416.1325 Z" ></path>
    <path id="br-06" d="M341.3485,389.7475 C341.3485,390.8415 342.2505,391.7325 343.3555,391.7325 L346.8665,391.7325 C347.9745,391.7325 348.8745,390.8415 348.8745,389.7475 L348.8745,384.0915 C348.8745,382.9985 347.9745,382.1115 346.8665,382.1115 L343.3555,382.1115 C342.2505,382.1115 341.3485,382.9995 341.3485,384.0915 L341.3485,389.7475 Z" ></path>
    <path id="br-07" d="M319.2015,389.7465 C319.2015,390.8465 320.0995,391.7325 321.2055,391.7325 L324.7185,391.7325 C325.8235,391.7325 326.7255,390.8455 326.7255,389.7465 L326.7255,384.0925 C326.7255,382.9985 325.8235,382.1125 324.7185,382.1125 L321.2055,382.1125 C320.0995,382.1125 319.2015,382.9985 319.2015,384.0925 L319.2015,389.7465 Z" ></path>
    <path id="br-08" d="M298.2085,381.0505 C298.2085,382.1425 299.1055,383.0295 300.2125,383.0295 L303.7265,383.0295 C304.8325,383.0295 305.7355,382.1425 305.7355,381.0505 L305.7355,375.3925 C305.7355,374.2985 304.8325,373.4095 303.7265,373.4095 L300.2125,373.4095 C299.1055,373.4095 298.2085,374.2985 298.2085,375.3925 L298.2085,381.0505 Z" ></path>
    <path id="br-12" d="M298.2075,246.4375 C298.2075,247.5335 299.1045,248.4195 300.2135,248.4195 L303.7265,248.4195 C304.8355,248.4195 305.7365,247.5335 305.7365,246.4375 L305.7365,240.7815 C305.7365,239.6845 304.8355,238.7975 303.7265,238.7975 L300.2135,238.7975 C299.1045,238.7975 298.2075,239.6855 298.2075,240.7815 L298.2075,246.4375 Z" ></path>
    <path id="br-13" d="M298.2075,221.4865 C298.2075,222.5815 299.1045,223.4655 300.2135,223.4655 L303.7265,223.4655 C304.8355,223.4655 305.7365,222.5805 305.7365,221.4865 L305.7365,215.8295 C305.7365,214.7355 304.8355,213.8465 303.7265,213.8465 L300.2135,213.8465 C299.1045,213.8465 298.2075,214.7365 298.2075,215.8295 L298.2075,221.4865 Z" ></path>
    <path id="br-14" d="M307.3135,196.5985 C307.3135,197.6925 308.2105,198.5795 309.3195,198.5795 L312.8325,198.5795 C313.9415,198.5795 314.8425,197.6915 314.8425,196.5985 L314.8425,190.9415 C314.8425,189.8485 313.9415,188.9585 312.8325,188.9585 L309.3195,188.9585 C308.2105,188.9585 307.3135,189.8485 307.3135,190.9415 L307.3135,196.5985 Z" ></path>
    <path id="br-15" d="M334.5635,196.5985 C334.5635,197.6925 335.4605,198.5785 336.5695,198.5785 L340.0805,198.5785 C341.1885,198.5785 342.0925,197.6925 342.0925,196.5985 L342.0925,190.9405 C342.0925,189.8465 341.1885,188.9585 340.0805,188.9585 L336.5695,188.9585 C335.4605,188.9585 334.5635,189.8465 334.5635,190.9405 L334.5635,196.5985 Z" ></path>
    <path id="br-16" d="M361.8135,196.5965 C361.8135,197.6925 362.7115,198.5795 363.8185,198.5795 L367.3315,198.5795 C368.4385,198.5795 369.3405,197.6915 369.3405,196.5965 L369.3405,190.9415 C369.3405,189.8465 368.4385,188.9575 367.3315,188.9575 L363.8185,188.9575 C362.7115,188.9575 361.8135,189.8465 361.8135,190.9415 L361.8135,196.5965 Z" ></path>
    <path id="br-17" d="M389.0615,196.5985 C389.0615,197.6935 389.9585,198.5795 391.0685,198.5795 L394.5775,198.5795 C395.6865,198.5795 396.5865,197.6925 396.5865,196.5985 L396.5865,190.9425 C396.5865,189.8465 395.6865,188.9575 394.5775,188.9575 L391.0685,188.9575 C389.9585,188.9575 389.0615,189.8465 389.0615,190.9425 L389.0615,196.5985 Z" ></path>
    <path id="br-18" d="M416.3075,196.5985 C416.3075,197.6935 417.2085,198.5795 418.3135,198.5795 L421.8225,198.5795 C422.9345,198.5795 423.8325,197.6925 423.8325,196.5985 L423.8325,190.9425 C423.8325,189.8465 422.9345,188.9575 421.8225,188.9575 L418.3135,188.9575 C417.2085,188.9575 416.3075,189.8465 416.3075,190.9425 L416.3075,196.5985 Z" ></path>
    <path id="br-19" d="M443.5535,196.5985 C443.5535,197.6935 444.4525,198.5795 445.5595,198.5795 L449.0695,198.5795 C450.1795,198.5795 451.0785,197.6925 451.0785,196.5985 L451.0785,190.9425 C451.0785,189.8465 450.1795,188.9575 449.0695,188.9575 L445.5595,188.9575 C444.4525,188.9575 443.5535,189.8465 443.5535,190.9425 L443.5535,196.5985 Z" ></path>
    <path id="br-20" d="M470.7995,196.6865 C470.7995,197.7835 471.6975,198.6695 472.8035,198.6695 L476.3175,198.6695 C477.4265,198.6695 478.3255,197.7835 478.3255,196.6865 L478.3255,191.0315 C478.3255,189.9375 477.4265,189.0475 476.3175,189.0475 L472.8035,189.0475 C471.6975,189.0475 470.7995,189.9385 470.7995,191.0315 L470.7995,196.6865 Z" ></path>
    <path id="br-21" d="M488.2145,214.2605 C488.2145,215.3545 489.1155,216.2425 490.2225,216.2425 L493.7365,216.2425 C494.8435,216.2425 495.7405,215.3545 495.7405,214.2605 L495.7405,208.6025 C495.7405,207.5085 494.8435,206.6215 493.7365,206.6215 L490.2225,206.6215 C489.1155,206.6215 488.2145,207.5095 488.2145,208.6025 L488.2145,214.2605 Z" ></path>
    <path id="br-22" d="M488.1875,238.6825 C488.1875,239.7755 489.0855,240.6625 490.1945,240.6625 L493.7045,240.6625 C494.8125,240.6625 495.7075,239.7755 495.7075,238.6825 L495.7075,233.0255 C495.7075,231.9285 494.8125,231.0425 493.7045,231.0425 L490.1945,231.0425 C489.0855,231.0425 488.1875,231.9285 488.1875,233.0255 L488.1875,238.6825 Z" ></path>
    <path id="br-23" d="M488.4895,262.8055 C488.4895,263.9015 489.3895,264.7875 490.4985,264.7875 L494.0095,264.7875 C495.1195,264.7875 496.0165,263.9015 496.0165,262.8055 L496.0165,257.1485 C496.0165,256.0535 495.1205,255.1675 494.0095,255.1675 L490.4985,255.1675 C489.3895,255.1675 488.4895,256.0545 488.4895,257.1485 L488.4895,262.8055 Z" ></path>
    <path id="br-01" d="M417.6365,442.7745 L414.1225,442.7745 C412.8775,442.7745 411.8635,443.7765 411.8635,445.0065 L411.8635,450.6635 C411.8635,451.8955 412.8775,452.8965 414.1225,452.8965 L417.6365,452.8965 C418.8835,452.8965 419.8955,451.8955 419.8955,450.6635 L419.8955,445.0065 C419.8955,443.7765 418.8835,442.7745 417.6365,442.7745" ></path>
    <path id="br-10" d="M308.0955,305.7735 L295.8495,305.7735 C294.1615,305.7735 292.7935,307.1295 292.7935,308.7945 L292.7935,314.3785 C292.7935,316.0425 294.1615,317.3975 295.8495,317.3975 L308.0955,317.3975 C309.7805,317.3975 311.1505,316.0425 311.1505,314.3785 L311.1505,308.7945 C311.1505,307.1295 309.7805,305.7735 308.0955,305.7735"></path>
    <path id="br-24" d="M497.9255,280.003 L486.2765,280.003 C484.5955,280.003 483.2215,281.355 483.2215,283.022 L483.2215,288.602 C483.2215,290.267 484.5955,291.624 486.2765,291.624 L497.9255,291.624 C499.6095,291.624 500.9805,290.267 500.9805,288.602 L500.9805,283.022 C500.9805,281.355 499.6085,280.003 497.9255,280.003"></path>
    <path id="br-11" d="M308.0955,267.3525 L295.8485,267.3525 C294.1595,267.3525 292.7945,268.7095 292.7945,270.3745 L292.7945,275.9495 C292.7945,277.6145 294.1595,278.9695 295.8485,278.9695 L308.0955,278.9695 C309.7815,278.9695 311.1495,277.6155 311.1495,275.9495 L311.1495,270.3745 C311.1495,268.7105 309.7815,267.3525 308.0955,267.3525" ></path>
</svg>